<?xml version="1.0" encoding="utf-8"?>
<svg version="1.1" xmlns:xlink="http://www.w3.org/1999/xlink" width="10px" height="10px" xmlns="http://www.w3.org/2000/svg">
  <g transform="matrix(1 0 0 1 -259 -10 )">
    <path d="M 6.42857142857144 7.83203125  C 6.47693452380952 7.83203125  6.51971726190482 7.81032986111111  6.55691964285711 7.76692708333334  L 7.37165178571433 6.81640625  C 7.40885416666663 6.77300347222222  7.42745535714289 6.72309027777778  7.42745535714289 6.66666666666667  C 7.42745535714289 6.61024305555555  7.40885416666663 6.56032986111111  7.37165178571433 6.51692708333333  L 6.07142857142856 5  L 7.37165178571433 3.48307291666667  C 7.40885416666663 3.43967013888889  7.42745535714289 3.38975694444444  7.42745535714289 3.33333333333333  C 7.42745535714289 3.27690972222222  7.40885416666663 3.22699652777778  7.37165178571433 3.18359375  L 6.55691964285711 2.23307291666667  C 6.51971726190482 2.18967013888889  6.47693452380952 2.16796875  6.42857142857144 2.16796875  C 6.38020833333337 2.16796875  6.33742559523807 2.18967013888889  6.30022321428567 2.23307291666667  L 5 3.75  L 3.69977678571433 2.23307291666667  C 3.66257440476193 2.18967013888889  3.61979166666663 2.16796875  3.57142857142856 2.16796875  C 3.52306547619048 2.16796875  3.48028273809518 2.18967013888889  3.44308035714289 2.23307291666667  L 2.62834821428567 3.18359375  C 2.59114583333337 3.22699652777778  2.57254464285711 3.27690972222222  2.57254464285711 3.33333333333333  C 2.57254464285711 3.38975694444444  2.59114583333337 3.43967013888889  2.62834821428567 3.48307291666667  L 3.92857142857144 5  L 2.62834821428567 6.51692708333333  C 2.59114583333337 6.56032986111111  2.57254464285711 6.61024305555555  2.57254464285711 6.66666666666667  C 2.57254464285711 6.72309027777778  2.59114583333337 6.77300347222222  2.62834821428567 6.81640625  L 3.44308035714289 7.76692708333334  C 3.48028273809518 7.81032986111111  3.52306547619048 7.83203125  3.57142857142856 7.83203125  C 3.61979166666663 7.83203125  3.66257440476193 7.81032986111111  3.69977678571433 7.76692708333334  L 5 6.25  L 6.30022321428567 7.76692708333334  C 6.33742559523807 7.81032986111111  6.38020833333337 7.83203125  6.42857142857144 7.83203125  Z M 9.73772321428567 0.305989583333334  C 9.91257440476193 0.509982638888888  10 0.755208333333334  10 1.04166666666667  L 10 8.95833333333334  C 10 9.24479166666666  9.91257440476193 9.49001736111111  9.73772321428567 9.69401041666666  C 9.56287202380952 9.89800347222222  9.35267857142856 10  9.10714285714289 10  L 0.89285714285711 10  C 0.647321428571445 10  0.437127976190482 9.89800347222222  0.262276785714334 9.69401041666666  C 0.0874255952380736 9.49001736111111  0 9.24479166666666  0 8.95833333333334  L 0 1.04166666666667  C 0 0.755208333333334  0.0874255952380736 0.509982638888888  0.262276785714334 0.305989583333334  C 0.437127976190482 0.101996527777777  0.647321428571445 0  0.89285714285711 0  L 9.10714285714289 0  C 9.35267857142856 0  9.56287202380952 0.101996527777777  9.73772321428567 0.305989583333334  Z " fill-rule="nonzero" fill="#000000" stroke="none" transform="matrix(1 0 0 1 259 10 )" />
  </g>
</svg>