<?xml version="1.0" encoding="utf-8"?>
<svg version="1.1" xmlns:xlink="http://www.w3.org/1999/xlink" width="10px" height="10px" xmlns="http://www.w3.org/2000/svg">
  <g transform="matrix(1 0 0 1 -223 -10 )">
    <path d="M 6.17838541666663 6.17838541666667  C 6.50390625 5.85286458333333  6.66666666666663 5.46006944444444  6.66666666666663 5  C 6.66666666666663 4.53993055555555  6.50390625 4.14713541666667  6.17838541666663 3.82161458333333  C 5.85286458333337 3.49609375  5.46006944444446 3.33333333333333  5 3.33333333333333  C 4.53993055555554 3.33333333333333  4.14713541666663 3.49609375  3.82161458333337 3.82161458333333  C 3.49609375 4.14713541666667  3.33333333333337 4.53993055555555  3.33333333333337 5  C 3.33333333333337 5.46006944444444  3.49609375 5.85286458333333  3.82161458333337 6.17838541666667  C 4.14713541666663 6.50390625  4.53993055555554 6.66666666666667  5 6.66666666666667  C 5.46006944444446 6.66666666666667  5.85286458333337 6.50390625  6.17838541666663 6.17838541666667  Z M 9.94791666666663 4.13736979166667  C 9.98263888888891 4.18294270833333  10 4.23394097222222  10 4.29036458333333  L 10 5.73567708333333  C 10 5.78776041666667  9.98263888888891 5.83767361111111  9.94791666666663 5.88541666666667  C 9.91319444444446 5.93315972222222  9.86979166666663 5.96137152777778  9.81770833333337 5.97005208333333  L 8.61328125 6.15234375  C 8.53081597222217 6.38671875  8.44618055555554 6.58420138888889  8.359375 6.74479166666667  C 8.51128472222217 6.96180555555556  8.74348958333337 7.26128472222222  9.05598958333337 7.64322916666666  C 9.09939236111109 7.6953125  9.12109375 7.74956597222222  9.12109375 7.80598958333334  C 9.12109375 7.86241319444445  9.1015625 7.91232638888889  9.0625 7.95572916666666  C 8.9453125 8.11631944444444  8.73046875 8.35069444444444  8.41796875 8.65885416666666  C 8.10546875 8.96701388888889  7.90147569444446 9.12109375  7.80598958333337 9.12109375  C 7.75390625 9.12109375  7.69748263888891 9.1015625  7.63671875 9.0625  L 6.73828125 8.359375  C 6.54730902777783 8.45920138888889  6.34982638888891 8.54166666666666  6.14583333333337 8.60677083333334  C 6.07638888888891 9.19704861111111  6.01345486111109 9.60069444444444  5.95703125 9.81770833333334  C 5.92664930555554 9.93923611111111  5.84852430555554 10  5.72265625 10  L 4.27734375 10  C 4.21657986111109 10  4.16341145833337 9.98155381944444  4.11783854166663 9.94466145833334  C 4.072265625 9.90776909722222  4.04730902777783 9.86111111111111  4.04296875 9.8046875  L 3.86067708333337 8.60677083333334  C 3.64800347222217 8.53732638888889  3.45269097222217 8.45703125  3.27473958333337 8.36588541666666  L 2.35677083333337 9.0625  C 2.31336805555554 9.1015625  2.25911458333337 9.12109375  2.19401041666663 9.12109375  C 2.13324652777783 9.12109375  2.07899305555554 9.09722222222222  2.03125 9.04947916666666  C 1.484375 8.5546875  1.12630208333337 8.19010416666666  0.95703125 7.95572916666666  C 0.926649305555543 7.91232638888889  0.911458333333371 7.86241319444445  0.911458333333371 7.80598958333334  C 0.911458333333371 7.75390625  0.928819444444457 7.70399305555555  0.963541666666629 7.65625  C 1.02864583333337 7.56510416666666  1.13932291666663 7.42078993055556  1.29557291666663 7.22330729166667  C 1.45182291666663 7.02582465277778  1.56901041666663 6.87282986111111  1.64713541666663 6.76432291666667  C 1.52994791666663 6.54730902777778  1.44097222222217 6.33246527777778  1.38020833333337 6.11979166666667  L 0.188802083333371 5.94401041666667  C 0.132378472222172 5.93532986111111  0.0868055555555429 5.908203125  0.0520833333333712 5.86263020833333  C 0.0173611111110858 5.81705729166667  0 5.76605902777778  0 5.70963541666667  L 0 4.26432291666667  C 0 4.21223958333333  0.0173611111110858 4.16232638888889  0.0520833333333712 4.11458333333333  C 0.0868055555555429 4.06684027777778  0.128038194444457 4.03862847222222  0.17578125 4.02994791666667  L 1.38671875 3.84765625  C 1.44748263888891 3.64800347222222  1.53211805555554 3.44835069444444  1.640625 3.24869791666667  C 1.46701388888891 3.00130208333333  1.23480902777783 2.70182291666667  0.944010416666629 2.35026041666667  C 0.900607638888914 2.29817708333333  0.87890625 2.24609375  0.87890625 2.19401041666667  C 0.87890625 2.15060763888889  0.8984375 2.10069444444444  0.9375 2.04427083333333  C 1.05034722222217 1.88802083333333  1.26410590277783 1.65473090277778  1.57877604166663 1.34440104166667  C 1.89344618055554 1.03407118055555  2.09852430555554 0.87890625  2.19401041666663 0.87890625  C 2.25043402777783 0.87890625  2.30685763888891 0.900607638888889  2.36328125 0.944010416666666  L 3.26171875 1.640625  C 3.45269097222217 1.54079861111111  3.65017361111109 1.45833333333333  3.85416666666663 1.39322916666667  C 3.92361111111109 0.802951388888889  3.98654513888891 0.399305555555555  4.04296875 0.182291666666666  C 4.07335069444446 0.0607638888888893  4.15147569444446 0  4.27734375 0  L 5.72265625 0  C 5.78342013888891 0  5.83658854166663 0.0184461805555554  5.88216145833337 0.0553385416666661  C 5.927734375 0.0922309027777768  5.95269097222217 0.138888888888889  5.95703125 0.1953125  L 6.13932291666663 1.39322916666667  C 6.35199652777783 1.46267361111111  6.54730902777783 1.54296875  6.72526041666663 1.63411458333333  L 7.64973958333337 0.9375  C 7.68880208333337 0.8984375  7.74088541666663 0.87890625  7.80598958333337 0.87890625  C 7.86241319444446 0.87890625  7.91666666666663 0.900607638888889  7.96875 0.944010416666666  C 8.52864583333337 1.46050347222222  8.88671875 1.82942708333333  9.04296875 2.05078125  C 9.07335069444446 2.08550347222222  9.08854166666663 2.13324652777778  9.08854166666663 2.19401041666667  C 9.08854166666663 2.24609375  9.07118055555554 2.29600694444444  9.03645833333337 2.34375  C 8.97135416666663 2.43489583333333  8.86067708333337 2.57921006944444  8.70442708333337 2.77669270833333  C 8.54817708333337 2.97417534722222  8.43098958333337 3.12717013888889  8.35286458333337 3.23567708333333  C 8.46571180555554 3.45269097222222  8.5546875 3.66536458333333  8.61979166666663 3.87369791666667  L 9.81119791666663 4.05598958333333  C 9.86762152777783 4.06467013888889  9.91319444444446 4.091796875  9.94791666666663 4.13736979166667  Z " fill-rule="nonzero" fill="#000000" stroke="none" transform="matrix(1 0 0 1 223 10 )" />
  </g>
</svg>